
<svg width="77px" height="89px" viewBox="0 0 77 89" version="1.1" xmlns="http://www.w3.org/2000/svg" xmlns:xlink="http://www.w3.org/1999/xlink">
    <g id="On-Ramp" stroke="none" stroke-width="1" fill="none" fill-rule="evenodd">
        <g id="Bake" transform="translate(-156.000000, -591.000000)">
            <g id="Start-Baking" transform="translate(156.000000, 582.000000)">
                <g id="Group-11" transform="translate(0.000000, 9.000000)">
                    <circle id="Oval" fill="#91A7D0" fill-rule="nonzero" cx="36.6" cy="43.6" r="36.6"></circle>
                    <polygon id="Polygon" fill="#7691C4" opacity="0.300000012" transform="translate(38.856481, 44.500000) rotate(90.000000) translate(-38.856481, -44.500000) " points="38.8564815 6.35648148 83.1960509 82.6435185 -5.48308798 82.6435185"></polygon>
                    <path d="M37.9267283,60.375 C35.225847,60.375 33.2586557,59.7327692 32.0227799,58.4483077 C30.7880914,57.1644359 30.1701535,55.7797179 30.1701535,54.2959231 C30.1701535,53.753359 30.2775951,53.2968974 30.493072,52.9259487 C30.7033019,52.5599396 31.0085402,52.2566845 31.3769428,52.0478205 C31.7503174,51.8337436 32.209764,51.727 32.7558763,51.727 C33.3019885,51.727 33.7608415,51.8337436 34.1348097,52.0478205 C34.5081843,52.2618974 34.80261,52.555 35.0180869,52.9259487 C35.2335638,53.2968974 35.3410055,53.753359 35.3410055,54.2959231 C35.3410055,54.9523077 35.1831078,55.4872051 34.8673125,55.9012051 C34.5509235,56.3152051 34.1775489,56.5858974 33.7465951,56.7150513 C34.1205633,57.2281282 34.7094148,57.592 35.5137432,57.8060769 C36.3180715,58.0348974 37.1223999,58.1487179 37.9267283,58.1487179 C39.046852,58.1487179 40.0595341,57.8491282 40.9647745,57.2499487 C41.8694213,56.6501795 42.5378152,55.7655641 42.968769,54.5955128 C43.3997228,53.4254615 43.6151997,52.0979487 43.6151997,50.6135641 C43.6151997,49.0012051 43.3777596,47.6235641 42.9040666,46.4824103 C42.4440264,45.3265128 41.7619796,44.4702051 40.8567392,43.9134872 C39.9794447,43.3649893 38.9632762,43.0755775 37.9267283,43.079 C37.2369648,43.079 36.3756508,43.3644359 35.3410055,43.9353077 L33.4450462,44.8771282 L33.4450462,43.9353077 L41.9774565,32.6328718 L30.1701535,32.6328718 L30.1701535,44.3628718 C30.1701535,45.3335897 30.3856304,46.1326923 30.8165842,46.7607692 C31.247538,47.3888462 31.9082151,47.7025897 32.7992091,47.7025897 C33.4877854,47.7025897 34.1490561,47.474359 34.7812404,47.0173077 C35.4174831,46.5563401 35.9709549,45.9921093 36.41839,45.3483333 C36.4759692,45.2191795 36.5477948,45.1265897 36.6338669,45.0693846 C36.7112892,45.0014682 36.8107674,44.9635687 36.9140462,44.962641 C37.0719439,44.962641 37.2583344,45.0410769 37.4744049,45.1985385 C37.6756354,45.4261795 37.7759538,45.6903846 37.7759538,45.9899744 C37.7512255,46.1917422 37.7151574,46.391978 37.6679185,46.5897436 C37.1799791,47.6742821 36.504462,48.5016923 35.6425544,49.0725641 C34.8034504,49.6364925 33.8122469,49.9350054 32.7992091,49.9288718 C30.2419791,49.9288718 28.4748311,49.429359 27.4983587,48.4309231 C26.5218862,47.4313077 26.0333532,46.0754872 26.0333532,44.3634615 L26.0333532,32.6328718 L20,32.6328718 L20,30.4490513 L26.0333532,30.4490513 L26.0333532,25.4834103 L24.6544197,24.1122564 L24.6544197,23 L28.6618152,23 L30.1695599,23.7702051 L30.1695599,30.4490513 L45.7693751,30.4065897 L47.3210462,31.9475897 L37.7545842,41.4518974 C38.3337331,41.2225605 38.9434395,41.0783261 39.5644714,41.0237436 C40.5985231,41.0237436 41.7619796,41.3522308 43.054841,42.0086154 C44.3619488,42.6508462 45.3675077,43.5360513 46.070924,44.6624615 C46.7749339,45.7758974 47.2272574,46.8462821 47.4284879,47.8736154 C47.6439648,48.9015385 47.752,49.8144615 47.752,50.6135641 C47.752,52.4405897 47.3637854,54.1384615 46.5885435,55.7089487 C45.8127079,57.2782564 44.635005,58.4483077 43.054841,59.2191026 C41.4746771,59.9898974 39.7651083,60.375 37.9267283,60.375 Z" id="Tezos-logo" fill="#FFFFFF"></path>
                </g>
            </g>
        </g>
    </g>
</svg>