<svg xmlns="http://www.w3.org/2000/svg" width="167" height="147" viewBox="0 0 167 147"><g fill="none" fill-rule="evenodd"><rect width="147" height="147" x="20" fill="#7691C4" fill-rule="nonzero" opacity=".5" rx="73.5"/><path fill="#FFF" fill-opacity=".5" fill-rule="nonzero" d="M85.591 78.943h16.818v16.748H85.591z"/><path stroke="#FFF" stroke-linecap="square" stroke-width=".837" d="M94.42 96.11v17.263" opacity=".2"/><path fill="#FFF" fill-rule="nonzero" d="M85.591 108.252h16.818V125H85.591z"/><path fill="#FFF" fill-opacity=".7" fill-rule="nonzero" d="M114.182 50.472H131V67.22h-16.818z"/><path fill="#FFF" fill-opacity=".4" fill-rule="nonzero" d="M85.591 22h16.818v16.748H85.591z"/><path stroke="#FFF" stroke-linecap="square" stroke-width=".837" d="M84.957 30.374H66.666v19.724m36.158-19.724h18.291v19.724m-18.706 36.843h18.292V67.218"/><path fill="#FFF" fill-opacity=".8" fill-rule="nonzero" d="M57 50.472h16.818V67.22H57z"/><path fill="#FFF" fill-opacity=".5" fill-rule="nonzero" d="M62.045 26.187h8.409v8.374h-8.409z"/><path fill="#FFF" fill-opacity=".8" fill-rule="nonzero" d="M116.705 26.187h8.409v8.374h-8.409z"/><path fill="#FFF" fill-opacity=".5" fill-rule="nonzero" d="M116.705 82.293h8.409v8.374h-8.409z"/><path fill="#7691C4" fill-opacity=".5" fill-rule="nonzero" d="M0 0h41v147H0V0z" opacity=".597"/></g></svg>