<svg width="26" height="28" viewBox="0 0 26 28" xmlns="http://www.w3.org/2000/svg"><path d="M7.665 18.946l-1.373-4.332-3.63 1.273a2 2 0 0 1-1.324-3.774l3.744-1.314-1.488-4.695a2 2 0 0 1 3.812-1.208l1.452 4.579 4.28-1.501-1.544-4.87a2 2 0 0 1 3.812-1.208l1.508 4.753 2.955-1.036a2 2 0 0 1 1.324 3.774l-3.07 1.077 1.374 4.332 3.372-1.183a2 2 0 0 1 1.324 3.774l-3.487 1.223 1.2 3.786a2 2 0 0 1-3.812 1.208l-1.164-3.67-4.28 1.502 1.256 3.96a2 2 0 0 1-3.812 1.208l-1.22-3.844-3.212 1.127a2 2 0 0 1-1.324-3.774l3.327-1.167zm3.776-1.325l4.28-1.5-1.374-4.332-4.279 1.5 1.373 4.332z" fill="#FFF"/></svg>