<svg width="57px" height="57px" viewBox="0 0 57 57" version="1.1" xmlns="http://www.w3.org/2000/svg" xmlns:xlink="http://www.w3.org/1999/xlink">
    <g id="On-Ramp" stroke="none" stroke-width="1" fill="none" fill-rule="evenodd" opacity="0.8">
        <g id="Store" transform="translate(-273.000000, -1398.000000)">
            <g id="Group-5" style="mix-blend-mode: multiply;" transform="translate(273.000000, 1398.000000)">
                <rect id="Rectangle-3" fill="#365185" opacity="0.900000036" style="mix-blend-mode: multiply;" x="0" y="0" width="57" height="57" rx="4"></rect>
                <g id="Group-3" transform="translate(11.000000, 14.000000)" fill="#FFFFFF">
                    <path d="M17.55,11.875 L2.99952036,0.357142857 C2.54952036,-2.77555756e-17 1.89000036,0.0599892857 1.49904036,0.565010714 L0.23904018,2.350725 C-0.12095982,2.85715357 0.0295093836,3.540725 0.44857116,3.89786786 L10.8000108,12.1135821 C11.1600108,12.4107357 11.1600108,13.0064393 10.8000108,13.3035821 L0.4500108,21.4885821 C1.0879038e-05,21.845725 -0.150469128,22.5892964 0.240480072,23.035725 L1.50048,24.970725 C1.86048,25.4771536 2.55096,25.5664393 3.00096,25.1785929 L17.55144,13.6607357 C18.150516,13.2143071 18.150516,12.32145 17.5500324,11.8750214 L17.55,11.875 Z" id="Fill-1"></path>
                    <path d="M34.85952,25.4171429 L14.60952,25.4171429 C14.00904,25.4171429 13.5,25.9235714 13.5,26.5178571 L13.5,28.75 C13.5,29.3457139 14.01048,29.8507139 14.60952,29.8507139 L34.85952,29.8507139 C35.46,29.8507139 35.96904,29.3442854 35.96904,28.75 L35.96904,26.5178571 C35.9999784,25.9221429 35.459964,25.4171429 34.85952,25.4171429 Z" id="Fill-2"></path>
                </g>
            </g>
        </g>
    </g>
</svg>