<svg xmlns="http://www.w3.org/2000/svg" width="81" height="93" viewBox="0 0 81 93"><g fill="none" fill-rule="evenodd"><path fill="#7691C4" opacity=".3" d="M81 46.5L.75 92.832V.168z"/><circle cx="39.5" cy="44.5" r="38.5" fill="#7691C4" opacity=".8"/><path fill="#FFF" fill-rule="nonzero" d="M43.795 62.244c-2.53 0-4.373-.605-5.531-1.816-1.157-1.211-1.736-2.517-1.736-3.916 0-.512.1-.942.303-1.292a2.22 2.22 0 0 1 .828-.828c.35-.202.78-.303 1.292-.303.511 0 .941.101 1.291.303.35.202.626.478.828.828.202.35.303.78.303 1.292 0 .619-.148 1.123-.444 1.514-.297.39-.646.645-1.05.767.35.484.902.827 1.655 1.029a8.177 8.177 0 0 0 2.261.323 5.02 5.02 0 0 0 2.846-.847c.848-.566 1.474-1.4 1.878-2.504.403-1.103.605-2.355.605-3.755 0-1.52-.222-2.82-.666-3.895-.43-1.09-1.07-1.898-1.918-2.423a5.122 5.122 0 0 0-2.745-.787c-.646 0-1.453.27-2.422.808l-1.777.888v-.888l7.994-10.658H36.528v11.061c0 .915.202 1.669.606 2.261.403.593 1.022.888 1.857.888.645 0 1.265-.215 1.857-.646a6.564 6.564 0 0 0 1.534-1.574.594.594 0 0 1 .202-.263.402.402 0 0 1 .262-.1c.148 0 .323.074.525.222.189.215.283.464.283.746a5.14 5.14 0 0 1-.101.566c-.458 1.023-1.09 1.803-1.898 2.341a4.703 4.703 0 0 1-2.664.808c-2.396 0-4.051-.471-4.966-1.413-.915-.942-1.373-2.22-1.373-3.835V36.084H27v-2.06h5.652v-4.682l-1.291-1.293V27h3.754l1.413.726v6.298l14.615-.04 1.453 1.454-8.962 8.962a6.01 6.01 0 0 1 1.695-.404c.97 0 2.06.31 3.27.93 1.225.605 2.167 1.44 2.826 2.502.66 1.05 1.083 2.059 1.272 3.028.202.97.303 1.83.303 2.583 0 1.723-.364 3.324-1.09 4.805a7.058 7.058 0 0 1-3.31 3.31c-1.481.727-3.083 1.09-4.805 1.09z"/></g></svg>