<svg xmlns="http://www.w3.org/2000/svg" width="77" height="69" viewBox="0 0 77 69"><g fill="none" fill-rule="evenodd"><g fill="#FFF"><path opacity=".75" d="M49.427 12.93l7.07 8.426-8.426 7.07L41.001 20z"/><path d="M41 20l7.071 8.426-8.426 7.071-7.071-8.426z"/><path d="M32.574 27.07l7.07 8.427-8.426 7.07-7.07-8.426z"/><path opacity=".8" d="M25.503 18.644l7.07 8.427-8.426 7.07-7.07-8.426z"/><path opacity=".5" d="M57.853 5.859l7.071 8.426-8.426 7.07-7.071-8.426z"/></g><path fill="#7691C4" opacity=".3" d="M34 1.059L67.941 35 34 68.941.059 35z"/><path fill="#7691C4" opacity=".8" d="M43 .059L76.941 34 43 67.941 9.059 34z"/><g fill="#FFF"><path opacity=".75" d="M36 25.515l4.242-4.243 4.243 4.243-4.243 4.243z"/><path d="M40.242 29.758l4.243-4.243 4.243 4.243L44.485 34z"/><path d="M44.485 34l4.243-4.242L52.97 34l-4.242 4.243z"/><path opacity=".8" d="M40.242 38.243L44.485 34l4.243 4.243-4.243 4.243z"/><path opacity=".65" d="M36 42.486l4.242-4.243 4.243 4.243-4.243 4.242z"/><path opacity=".45" d="M31.757 46.728L36 42.486l4.242 4.242L36 50.971z"/><path opacity=".5" d="M31.757 21.272L36 17.03l4.242 4.242L36 25.515z"/></g></g></svg>