<svg xmlns="http://www.w3.org/2000/svg" xmlns:xlink="http://www.w3.org/1999/xlink" width="54" height="69" viewBox="0 0 54 69"><defs><linearGradient id="a" x1="50%" x2="50%" y1="0%" y2="100%"><stop offset="0%" stop-color="#FFF"/><stop offset="100%" stop-color="#F5F7FD"/></linearGradient><path id="b" d="M0 65V0h32.667L49 16.25V65z"/><linearGradient id="c" x1="50%" x2="50%" y1="0%" y2="100%"><stop offset="0%" stop-color="#AEC4E4"/><stop offset="100%" stop-color="#7691C4"/></linearGradient></defs><g fill="none" fill-rule="evenodd"><g opacity=".463"><use fill="url(#a)" xlink:href="#b"/><use fill="#7691C4" fill-opacity=".6" xlink:href="#b" style="mix-blend-mode:multiply"/></g><path fill="url(#c)" opacity=".72" style="mix-blend-mode:multiply" d="M5 69V4h32.667L54 20.25V69z"/><g fill="#FFF"><path d="M35.201 39.372v-5.108a7.057 7.057 0 0 0-2.023-4.945 6.854 6.854 0 0 0-4.875-2.051H27.05a6.854 6.854 0 0 0-4.875 2.05 7.057 7.057 0 0 0-2.023 4.946v5.108a5.967 5.967 0 0 0-3.446 2.106 6.12 6.12 0 0 0-1.353 3.844v5.357c0 1.61.631 3.154 1.754 4.293a5.943 5.943 0 0 0 4.232 1.779h12.676c1.587 0 3.11-.64 4.232-1.78A6.115 6.115 0 0 0 40 50.68v-5.357c0-1.402-.479-2.76-1.353-3.844a5.966 5.966 0 0 0-3.446-2.106zM27.05 29.41h1.25c2.642.001 4.785 2.173 4.79 4.853v5H22.264v-5c.004-2.678 2.144-4.849 4.785-4.853zm10.838 21.25c0 2.17-1.734 3.928-3.873 3.928H21.338c-2.139 0-3.873-1.759-3.873-3.928v-5.357c0-2.17 1.734-3.929 3.873-3.929h12.676c2.139 0 3.873 1.76 3.873 3.929v5.357z"/><path d="M27.676 45.393c-.583 0-1.056.48-1.056 1.071v5.1c0 .592.473 1.072 1.056 1.072.583 0 1.056-.48 1.056-1.071v-5.1c0-.592-.473-1.072-1.056-1.072z"/></g></g></svg>