<svg xmlns="http://www.w3.org/2000/svg" width="49" height="49" viewBox="0 0 49 49"><g fill="none" fill-rule="evenodd"><circle cx="24.5" cy="24.5" r="24.5" fill="#8D9EC7"/><path fill="#FFF" stroke="#FFF" d="M12.696 14c-.933 0-1.696.75-1.696 1.667v16.666c0 .917.763 1.667 1.696 1.667h22.608c.933 0 1.696-.75 1.696-1.667V15.667c0-.578-.304-1.09-.762-1.39h-.001a1.7 1.7 0 0 0-.933-.277H12.696zm0 .556h22.608c.188 0 .363.05.52.13L25.81 24.583c-.48.5-1.13.75-1.81.75-.677 0-1.327-.25-1.808-.722l-10.086-9.886a1.12 1.12 0 0 1 .59-.17zm23.548.495c.12.177.19.39.19.616v16.666c0 .178-.046.345-.123.493l-9.08-8.843 9.013-8.932zm-24.526.07l9.035 8.857-9.069 8.841a1.09 1.09 0 0 1-.118-.486V15.667c0-.2.057-.384.152-.546zm9.436 9.25l.642.63a3.128 3.128 0 0 0 2.204.888c.82 0 1.61-.306 2.204-.889l.628-.62 9.11 8.869a1.142 1.142 0 0 1-.637.195h-22.61c-.238 0-.46-.075-.642-.2l9.101-8.873z"/></g></svg>