<svg xmlns="http://www.w3.org/2000/svg" xmlns:xlink="http://www.w3.org/1999/xlink" width="73" height="78" viewBox="0 0 73 78"><defs><linearGradient id="a" x1="50%" x2="50%" y1="0%" y2="100%"><stop offset="0%" stop-color="#FFF"/><stop offset="100%" stop-color="#F5F7FD"/></linearGradient><path id="b" d="M34.5 9L69 78H0z"/><linearGradient id="c" x1="50%" x2="50%" y1="0%" y2="100%"><stop offset="0%" stop-color="#AEC4E4"/><stop offset="100%" stop-color="#7691C4"/></linearGradient><path id="d" d="M38.5 0L73 69H4z"/></defs><g fill="none" fill-rule="evenodd"><g opacity=".463"><use fill="url(#a)" xlink:href="#b"/><use fill="#7691C4" fill-opacity=".6" xlink:href="#b" style="mix-blend-mode:multiply"/></g><g opacity=".523" style="mix-blend-mode:multiply"><use fill="url(#c)" xlink:href="#d"/><use fill="#7691C4" fill-opacity=".7" xlink:href="#d" style="mix-blend-mode:multiply"/></g><path fill="#FFF" stroke="#FFF" d="M44.133 51.55l-4.213-8.732h1.246v-8.45h-8.702v8.45h1.246l-4.213 8.733H24V60h8.701l-.001-3.625h8.23L40.931 60h8.7v-8.45h-5.498zM33.664 35.57h6.302v6.05h-6.302v-6.05zM31.5 58.8h-6.3v-6.049h6.3l-.001 6.05zm1.2-3.624V51.55h-1.87l4.212-8.733h3.545L42.8 51.55h-1.87v3.625H32.7zM48.43 58.8h-6.3v-6.049h6.3v6.05z"/></g></svg>