<svg xmlns="http://www.w3.org/2000/svg" width="107" height="118" viewBox="0 0 107 118"><defs><linearGradient id="a" x1="50%" x2="50%" y1="0%" y2="100%"><stop offset="0%" stop-color="#AEC4E4"/><stop offset="100%" stop-color="#7691C4"/></linearGradient></defs><g fill="none" fill-rule="evenodd"><path fill="#7691C4" opacity=".805" d="M53.5 0L107 53.5 53.5 107 0 53.5z"/><path fill="url(#a)" opacity=".8" d="M12 11h42.337L97 53.46V118H12z"/><g fill="#FFF"><path opacity=".75" d="M65.97 44.485l4.243-4.242 4.243 4.242-4.243 4.243z"/><path d="M70.213 48.728l4.243-4.243 4.242 4.243-4.242 4.242zm4.243 4.242l4.242-4.242 4.243 4.242-4.243 4.243z"/><path opacity=".8" d="M70.213 57.213l4.243-4.243 4.242 4.243-4.242 4.243z"/><path opacity=".65" d="M65.97 61.456l4.243-4.243 4.243 4.243-4.243 4.242z"/><path opacity=".45" d="M61.728 65.698l4.243-4.242 4.242 4.242-4.242 4.243z"/><path opacity=".5" d="M61.728 40.243L65.97 36l4.242 4.243-4.242 4.242z"/></g><g fill="#FFF"><path opacity=".75" d="M53.824 47.325l4.243 4.243-4.243 4.243-4.243-4.243z"/><path opacity=".6" d="M49.581 51.568l4.243 4.243-4.243 4.242-4.242-4.242z"/><path opacity=".6" d="M45.339 55.81l4.242 4.243-4.242 4.243-4.243-4.243zm12.728-12.727l4.242 4.242-4.242 4.243-4.243-4.243z"/></g><g fill="#FFF"><path opacity=".75" d="M37.971 63.456l-4.243 4.242-4.242-4.242 4.242-4.243z"/><path d="M33.728 59.213l-4.242 4.243-4.243-4.243 4.243-4.243zm-4.242-4.243l-4.243 4.243L21 54.97l4.243-4.242z"/><path opacity=".8" d="M33.728 50.728l-4.242 4.242-4.243-4.242 4.243-4.243z"/><path opacity=".65" d="M37.971 46.485l-4.243 4.243-4.242-4.243 4.242-4.242z"/><path opacity=".45" d="M42.214 42.243l-4.243 4.242-4.243-4.242L37.971 38z"/><path opacity=".5" d="M42.214 67.698l-4.243 4.243-4.243-4.243 4.243-4.242z"/></g></g></svg>