<svg xmlns="http://www.w3.org/2000/svg" xmlns:xlink="http://www.w3.org/1999/xlink" width="70" height="69" viewBox="0 0 70 69"><defs><linearGradient id="a" x1="50%" x2="50%" y1="0%" y2="100%"><stop offset="0%" stop-color="#FFF"/><stop offset="100%" stop-color="#F5F7FD"/></linearGradient><circle id="b" cx="32.5" cy="32.5" r="32.5"/><linearGradient id="c" x1="50%" x2="50%" y1="0%" y2="100%"><stop offset="0%" stop-color="#AEC4E4"/><stop offset="100%" stop-color="#7691C4"/></linearGradient><circle id="d" cx="37.5" cy="36.5" r="32.5"/></defs><g fill="none" fill-rule="evenodd"><g opacity=".463"><use fill="url(#a)" xlink:href="#b"/><use fill="#7691C4" fill-opacity=".6" xlink:href="#b" style="mix-blend-mode:multiply"/></g><g opacity=".523" style="mix-blend-mode:multiply"><use fill="url(#c)" xlink:href="#d"/><use fill="#7691C4" fill-opacity=".7" xlink:href="#d" style="mix-blend-mode:multiply"/></g><path stroke="#FFF" stroke-linecap="round" stroke-linejoin="round" stroke-width="2" d="M23.233 29.347l9.92-3.506-9.92 3.506zM36.634 24.6l10.053-3.541-10.053 3.54zM34.96 49V27.052 49zm-7.093 0h14.185-14.185zm7.093-25.345a1.697 1.697 0 0 0-1.126 2.918 1.698 1.698 0 1 0 2.88-1.22 1.724 1.724 0 0 0-1.754-1.698zM21.01 42.053h10.212H21.01zm.26.995c.968 1.805 2.737 3.069 4.845 3.069 2.108 0 3.835-1.24 4.815-3.01.375-.68.371-1.092.105-1.882L26.854 30.67a.622.622 0 0 0-.398-.415.62.62 0 0 0-.796.36c-1.491 4.175-2.985 6.51-4.477 10.682-.257.716-.254 1.131.077 1.751h.01zm17.428-7.146H48.91 38.698zm.26.996c.961 1.804 2.738 3.072 4.846 3.072s3.835-1.24 4.811-3.01c.376-.68.372-1.091.106-1.882l-4.183-10.57a.615.615 0 0 0-.396-.416.62.62 0 0 0-.79.378c-1.491 4.175-2.985 6.51-4.477 10.683-.257.716-.255 1.13.077 1.75l.006-.005z"/></g></svg>